<?xml version="1.0" encoding="UTF-8"?>
<svg id="Capa_2" data-name="Capa 2" xmlns="http://www.w3.org/2000/svg" viewBox="0 0 6.38 7.98">
  <g id="Capa_1-2" data-name="Capa 1">
    <path d="M3.19,3.99c.22,0,.41-.08.56-.23.16-.16.23-.34.23-.56s-.08-.41-.23-.56-.34-.23-.56-.23-.41.08-.56.23-.23.34-.23.56.08.41.23.56c.16.16.34.23.56.23ZM3.19,6.92c.81-.74,1.41-1.42,1.81-2.03s.59-1.15.59-1.62c0-.72-.23-1.32-.69-1.78s-1.03-.69-1.7-.69-1.24.23-1.7.69-.69,1.06-.69,1.78c0,.47.2,1.01.59,1.62s.99,1.29,1.81,2.03ZM3.19,7.98c-1.07-.91-1.87-1.76-2.4-2.54s-.79-1.5-.79-2.17c0-1,.32-1.79.96-2.38.64-.59,1.38-.89,2.23-.89s1.59.3,2.23.89.96,1.39.96,2.38c0,.66-.26,1.39-.79,2.17s-1.33,1.63-2.4,2.54Z" fill="#6e6d6c"/>
  </g>
</svg>