<?xml version="1.0" encoding="UTF-8"?>
<svg id="Capa_2" data-name="Capa 2" xmlns="http://www.w3.org/2000/svg" viewBox="0 0 7.18 7.2">
  <g id="Capa_1-2" data-name="Capa 1">
    <g>
      <path d="M0,7.2l.52-1.93c-.29-.53-.45-1.12-.45-1.72C.07,1.6,1.67,0,3.63,0s3.56,1.6,3.56,3.56-1.6,3.56-3.56,3.56c-.59,0-1.17-.15-1.69-.43l-1.94.52ZM2.03,5.96l.12.07c.45.27.96.41,1.47.41,1.59,0,2.88-1.29,2.88-2.88S5.22.67,3.63.67.74,1.97.74,3.56c0,.53.15,1.04.42,1.5l.07.12-.29,1.08,1.08-.29Z" fill="#6e6d6c"/>
      <path d="M4.95,4.05c-.15-.09-.34-.19-.51-.11-.13.05-.22.26-.3.37-.04.05-.1.06-.16.04-.5-.2-.88-.53-1.15-.99-.05-.07-.04-.13.02-.19.08-.1.19-.21.21-.34.02-.13-.04-.28-.09-.4-.07-.15-.15-.36-.3-.45-.14-.08-.32-.03-.44.07-.21.17-.31.44-.31.71,0,.08.01.15.03.23.04.18.12.34.22.5.07.12.14.23.23.34.27.36.6.67.98.91.19.12.4.22.61.29.24.08.45.16.71.11.27-.05.54-.22.64-.48.03-.08.05-.16.03-.24-.04-.17-.26-.27-.4-.35Z" fill="#6e6d6c" fill-rule="evenodd"/>
    </g>
  </g>
</svg>