<?xml version="1.0" encoding="UTF-8"?>
<svg id="Capa_2" data-name="Capa 2" xmlns="http://www.w3.org/2000/svg" viewBox="0 0 7.18 7.18">
  <g id="Capa_1-2" data-name="Capa 1">
    <path d="M6.76,7.18c-.83,0-1.65-.18-2.46-.54-.81-.36-1.55-.88-2.21-1.54S.91,3.69.54,2.88C.18,2.07,0,1.25,0,.42c0-.12.04-.22.12-.3s.18-.12.3-.12h1.62c.09,0,.18.03.25.09s.12.14.13.22l.26,1.4c.01.11,0,.2,0,.27s-.06.14-.11.19l-.97.98c.13.25.29.48.47.71s.38.45.6.66c.21.21.42.4.65.57s.47.34.72.48l.94-.94c.06-.06.14-.1.23-.13s.19-.04.28-.02l1.38.28c.09.03.17.07.23.14s.09.15.09.23v1.62c0,.12-.04.22-.12.3s-.18.12-.3.12ZM1.21,2.39l.66-.66-.17-.94h-.89c.03.27.08.54.14.81s.15.53.26.79ZM4.78,5.96c.26.11.52.2.79.27s.54.11.81.13v-.88l-.94-.19-.67.67Z" fill="#6e6d6c"/>
  </g>
</svg>