<?xml version="1.0" encoding="UTF-8"?>
<svg id="Capa_2" data-name="Capa 2" xmlns="http://www.w3.org/2000/svg" viewBox="0 0 189.75 189.75">
  <g id="Capa_1-2" data-name="Capa 1">
    <g>
      <circle cx="94.88" cy="94.88" r="94.88" fill="#fff"/>
      <g>
        <path d="M55.08,153.79c-.58-.46-1.15-.9-1.73-1.36-3.01-2.47-5.86-5.17-8.4-8.09-10.09-11.65-16.19-26.76-16.19-43.35,0-15.58,5.4-29.92,14.41-41.22,0,0,10.2-.55,19.71,5.55,2.65,1.68,5.86,4.14,8.41,7.28,1.61,1.98,3.28,4.01,3.69,5.64,0,0,.35,1.3.16,2.47-.12.77-.37,1.48-.64,2-.34.89-1.94,2.23-3.81,3.81-1.21,1.03-1.76,1.54-3.32,2.97-.29.27-1.5,1.41-1.89,1.78-.65.63-1.41,1.39-2.19,2.14-.77.74-1.36,1.42-2.11,2.14-.66.64-1.24,1.29-1.65,1.87-.36.49-.57,1.02-.73,1.42,0,0-1.13,2.8.72,5.47.52.75,1.06,1.17,1.76,1.73.44.36.95.82,1.62,1.34,1.22.98,2.47,1.94,3.63,2.9,5.26,4.39,9.1,9,11.73,12.62.42.58,1.36,1.96,2.16,3.23.82,1.28,1.49,2.47,1.49,2.47.94,1.62,1.53,3.83,1.15,6.17-.29,1.83-1.18,3.78-3.06,5.54,0,0-1.43,1.28-3.26,2.68-2.12,1.66-5.37,3.76-8.97,5.72-2.6,1.4-5.17,2.52-7.31,3.32-3.14,1.18-5.36,1.76-5.36,1.76" fill="#fdc99f"/>
        <path d="M99.03,110.61c2.21.47,3.8.87,5.5,1.16.9.15,5.06.89,6.95,1.32.92.21,2.39.55,3.83.95,1.61.45,3.18.97,4,1.28,2.44.88,5,1.97,6.4,2.64,3.44,1.65,5.68,3.58,7.2,6.03.73,1.19,2.07,3.55,2.43,6.24.38,2.85-.25,6.07-.92,7.95-1.3,3.65-7.24,15.94-19.35,25.77,0,0,5.85-1.61,13.06-5.82,9.48-5.53,21.81-15.82,28.74-34.14,0,0,1.79-4.56,3-10.92.69-3.61,1.11-7.74,1.11-12.08s-.45-8.59-1.08-12.03c-.91-4.93-2.13-8.34-2.3-8.87-.31-.96-1.88-5.35-3.96-9.41-2.14-4.14-4.78-7.95-5.1-8.31-.81-.94-1.51-1.52-2.58-1.95-.76-.3-1.62-.4-2.17-.42-.21,0-.46,0-.66.02-.2.03-.36.04-1.19.2-1.65.33-4.71.98-8.09,1.88-1.59.42-4.73,1.32-7.23,2.13-2.42.78-5.29,1.55-13.65,5.15-5.54,2.4-11.86,5.6-18.89,10.01,0,0-3.92,2.35-8.29,5.61-1.97,1.46-3.99,2.97-5.78,4.62-.7.66-1.5,1.52-2.1,2.16,0,0-2.7,3.09-2.65,5.82,0,0-.11,2.28,1.7,4.24.4.44.91.91,1.43,1.35.37.33.78.68,1.62,1.22.36.23.7.46,1.29.77,1.58.82,4.56,1.76,5.15,1.97.6.2,2.64.86,4.04,1.25,2.85.81,4.76,1.35,8.54,2.2" fill="#fdc99f"/>
        <path d="M94.76,44c5.03,0,9.1-4.07,9.1-9.1s-4.08-9.1-9.1-9.1-9.09,4.07-9.09,9.1,4.08,9.1,9.09,9.1" fill="#d13339"/>
        <path d="M125.39,69.21c5.01,0,9.1-4.08,9.1-9.1s-4.1-9.1-9.1-9.1-9.1,4.07-9.1,9.1,4.09,9.1,9.1,9.1" fill="#d13339"/>
        <path d="M64.11,69.21c5.02,0,9.1-4.08,9.1-9.1s-4.08-9.1-9.1-9.1-9.1,4.07-9.1,9.1,4.08,9.1,9.1,9.1" fill="#d13339"/>
        <polygon points="103.53 54.42 103.53 54.41 94.77 45.63 94.76 45.64 94.76 45.63 86 54.41 86 54.42 43.09 97.33 51.85 106.08 63.75 94.18 63.75 131.42 76.15 131.42 76.15 81.78 88.57 69.38 88.57 131.42 100.96 131.42 100.96 69.38 113.38 81.78 113.38 131.42 125.77 131.42 125.77 94.18 137.69 106.08 146.45 97.33 103.53 54.42" fill="#d13339"/>
      </g>
    </g>
  </g>
</svg>